:SAMPLES-PER-SECOND 30
:FULLY-SPECIFIED
:DEGREES
57
root  59.2005 38.6814 4.42875 -144.364 -85.6537 139.235
RightUpLeg  -15.4728 -6.27864 -4.71298
RightLeg  6.18519 5.19142 0.466684
RightFoot  -3.70374 -0.747701 10.7912
RightToes  -4.65661e-009 0 -3.6325e-017
Spine  5.9298 -1.16107 -4.22387
Spine1  5.34117 -0.972141 -2.14652
HEad  -10.7708 -1.19911 -2.89693
LeftShoulder1  -0.317256 4.35105 -31.3009
LeftArm  12.2977 -13.6646 -44.5925
LeftForeArm  18.967 -20.5511 -4.84419
LeftHand  -0.0106962 6.89858 1.866
RightShoulder  -0.845012 -5.85832 29.2836
RightArm  17.3429 -8.98245 47.4878
RightForeArm  13.057 15.9527 5.39587
RightHand  -0.101524 5.35741 -1.41846
LeftUpLeg  6.74637 6.82387 -5.23877
LeftLeg  11.8881 9.88613 0.108404
LeftFoot  -13.2338 0.165238 5.19913
LeftToes  9.86798e-010 -1.28139e-010 1.4132e-011
58
root  58.477 38.5865 4.49399 -143.46 -84.9216 138.864
RightUpLeg  -15.9618 -6.03756 -4.34133
RightLeg  -0.384535 5.54854 -0.0167948
RightFoot  -3.7878 -0.814784 11.9113
RightToes  -4.65661e-009 0 -3.6325e-017
Spine  5.24931 -0.794053 -3.82145
Spine1  5.91873 -0.370323 -2.6189
HEad  -11.3185 -1.78789 -2.59214
LeftShoulder1  -0.25096 4.18328 -30.8088
LeftArm  13.2985 -13.9461 -45.4406
LeftForeArm  18.991 -20.6364 -4.83328
LeftHand  -0.0229516 6.98566 1.00087
RightShoulder  -0.849985 -5.87623 29.2256
RightArm  17.7362 -8.93904 47.383
RightForeArm  13.237 16.3211 5.30535
RightHand  -0.0334673 4.50431 -0.676308
LeftUpLeg  7.58523 6.47247 -6.08799
LeftLeg  11.423 10.8 0.237029
LeftFoot  -14.0323 0.197068 4.78782
LeftToes  9.86798e-010 -1.28139e-010 1.4132e-011
59
root  57.6472 38.4694 4.52112 -137.578 -84.871 133.298
RightUpLeg  -16.4579 -6.02663 -4.22679
RightLeg  -3.71289 4.55018 -0.204755
RightFoot  -4.10785 -0.786718 11.9558
RightToes  -4.65661e-009 0 -3.6325e-017
Spine  5.349 -0.764461 -3.58543
Spine1  5.35001 -0.268065 -2.75035
HEad  -11.0499 -2.02107 -2.64853
LeftShoulder1  -0.212743 4.08014 -30.779
LeftArm  13.6407 -13.0996 -45.6382
LeftForeArm  19.1114 -20.4424 -4.94718
LeftHand  -0.0251891 7.1127 0.751683
RightShoulder  -0.929632 -6.08034 29.4924
RightArm  17.6069 -8.74464 46.9509
RightForeArm  14.6513 15.4892 5.52597
RightHand  0.00421712 2.35441 -0.133106
LeftUpLeg  8.8055 6.40556 -6.50991
LeftLeg  11.0762 10.5051 0.0856854
LeftFoot  -15.0752 0.235933 4.46666
LeftToes  9.86798e-010 -1.28139e-010 1.4132e-011
60
root  56.7722 38.3101 4.51719 -133.648 -84.6333 129.652
RightUpLeg  -17.7866 -6.11293 -4.1407
RightLeg  -2.32733 1.81063 0.361496
RightFoot  -3.87447 -0.778172 11.4988
RightToes  -4.65661e-009 0 -3.6325e-017
Spine  5.42065 -0.785954 -3.19469
Spine1  5.01207 -0.200514 -3.12913
HEad  -10.9386 -1.56827 -2.54396
LeftShoulder1  -0.264415 4.21854 -30.8794
LeftArm  13.0359 -12.0498 -45.7001
LeftForeArm  20.0135 -19.7276 -5.29646
LeftHand  -0.0118233 7.84112 1.36304
RightShoulder  -1.06782 -6.43442 29.9084
RightArm  17.8731 -8.09236 46.4172
RightForeArm  15.221 14.8695 5.76891
RightHand  0.0113058 2.03678 -8.27748e-005
LeftUpLeg  10.0223 6.57787 -6.74773
LeftLeg  11.0845 10.0853 -0.146367
LeftFoot  -16.3861 0.27082 3.91026
LeftToes  9.86798e-010 -1.28139e-010 1.4132e-011
61
root  55.8303 38.1187 4.48801 -129.788 -84.473 125.987
RightUpLeg  -18.5774 -6.49105 -4.0285
RightLeg  0.400995 -1.33938 1.10125
RightFoot  -2.76724 -0.853134 11.0316
RightToes  -4.65661e-009 0 -3.6325e-017
Spine  4.84327 -0.817405 -3.01501
Spine1  5.70749 -0.239784 -3.05794
HEad  -11.5467 -1.91652 -2.79962
LeftShoulder1  -0.293834 4.29104 -31.0926
LeftArm  11.8263 -10.7374 -45.577
LeftForeArm  21.3539 -18.8159 -5.76308
LeftHand  -0.0286508 6.60239 0.570271
RightShoulder  -0.973868 -6.19297 29.6363
RightArm  16.7748 -7.61897 46.4014
RightForeArm  15.7064 13.9015 5.94306
RightHand  -0.00725811 2.52088 -0.292564
LeftUpLeg  11.3485 6.74724 -6.92139
LeftLeg  11.2483 9.50991 -0.177119
LeftFoot  -17.6268 0.289534 3.3488
LeftToes  9.86798e-010 -1.28139e-010 1.4132e-011
62
root  54.8382 37.9643 4.41779 -117.959 -85.2042 114.53
RightUpLeg  -19.021 -6.69293 -3.65851
RightLeg  3.40083 -2.78291 1.05622
RightFoot  -2.37776 -0.733197 9.29122
RightToes  -4.65661e-009 0 -3.6325e-017
Spine  4.4996 -1.19004 -2.88946
Spine1  5.76148 -0.857993 -2.07168
HEad  -11.6152 -1.8948 -3.5719
LeftShoulder1  -0.444356 4.67355 -31.8763
LeftArm  10.0853 -9.38791 -45.2808
LeftForeArm  24.3933 -16.7709 -6.92823
LeftHand  -0.0324669 6.07565 0.00403531
RightShoulder  -0.879765 -5.97782 28.9766
RightArm  15.3787 -7.98119 46.3666
RightForeArm  15.6073 13.4858 5.84788
RightHand  -0.0448249 3.90499 -0.827972
LeftUpLeg  12.3964 7.1327 -6.28124
LeftLeg  11.8404 7.49847 -0.200673
LeftFoot  -18.7924 0.297349 2.81813
LeftToes  9.86798e-010 -1.28139e-010 1.4132e-011
63
root  53.7632 38.01 4.37789 -103.045 -86.0425 99.5382
RightUpLeg  -19.0612 -7.17545 -3.0272
RightLeg  6.14965 -1.79421 1.09416
RightFoot  1.87371 -0.317122 3.01074
RightToes  -4.65661e-009 0 -3.6325e-017
Spine  4.54459 -1.38267 -1.41839
Spine1  5.65857 -1.19026 -1.54126
HEad  -11.5603 -3.04015 -3.19681
LeftShoulder1  -0.383667 4.51189 -31.9074
LeftArm  7.53724 -6.92615 -45.032
LeftForeArm  27.9134 -14.0925 -8.36457
LeftHand  -0.0360936 7.29387 0.228126
RightShoulder  -0.915823 -6.02362 29.7623
RightArm  15.8481 -8.96215 44.6562
RightForeArm  15.5847 14.2085 5.61172
RightHand  -0.0160787 3.0338 -0.453268
LeftUpLeg  15.0487 7.06604 -5.41275
LeftLeg  10.1681 5.85372 -0.174063
LeftFoot  -18.2496 0.217201 1.78148
LeftToes  9.86798e-010 -1.28139e-010 1.4132e-011
64
root  52.587 38.0278 4.26341 -97.2973 -87.4176 93.9348
RightUpLeg  -19.0702 -6.72073 -1.59212
RightLeg  8.42027 -1.80171 0.927788
RightFoot  7.24516 0.119024 -0.547343
RightToes  -4.65661e-009 0 -3.6325e-017
Spine  3.4482 -1.21471 0.919894
Spine1  6.78428 -1.10606 -1.07294
HEad  -11.4521 -4.1221 -3.24431
LeftShoulder1  -0.45687 4.69092 -32.3835
LeftArm  2.97061 -5.04316 -44.886
LeftForeArm  34.0143 -10.71 -9.48216
LeftHand  -0.0391408 6.72858 -0.211142
RightShoulder  -0.941824 -6.08334 29.9368
RightArm  15.3527 -9.16131 43.7552
RightForeArm  15.9452 13.8518 5.60114
RightHand  -0.0139758 2.25998 -0.400476
LeftUpLeg  16.9773 7.79407 -3.09333
LeftLeg  10.007 3.58329 -0.205265
LeftFoot  -18.1154 0.115447 0.133456
LeftToes  9.86798e-010 -1.28139e-010 1.4132e-011
65
root  51.3938 37.9818 4.16544 -125.515 -88.2929 122.338
RightUpLeg  -19.9352 -6.29015 0.328294
RightLeg  13.1011 -0.72421 0.240647
RightFoot  6.00343 0.30079 -1.69662
RightToes  -4.65661e-009 0 -3.6325e-017
Spine  2.94624 -0.677507 4.11241
Spine1  6.85414 -0.296177 -1.88508
HEad  -11.8161 -4.21636 -3.25662
LeftShoulder1  -0.474528 4.70496 -33.2639
LeftArm  -0.897871 -2.05863 -44.2407
LeftForeArm  38.8981 -8.39363 -9.55751
LeftHand  -0.0453232 6.45595 -0.972415
RightShoulder  -0.925255 -6.03044 30.0213
RightArm  13.5945 -8.25119 43.3462
RightForeArm  17.3565 11.2349 5.9986
RightHand  -0.0109748 3.15417 -0.373441
LeftUpLeg  18.0495 8.75701 -1.0424
LeftLeg  11.595 2.20634 0.039392
LeftFoot  -18.18 -0.046155 -2.59688
LeftToes  9.86798e-010 -1.28139e-010 1.4132e-011
66
root  50.2663 37.9704 4.05413 -179.445 -87.954 176.562
RightUpLeg  -20.0515 -5.43545 1.99368
RightLeg  16.1065 -0.218137 0.00160717
RightFoot  4.52994 0.371892 -2.4575
RightToes  -4.65661e-009 0 -3.6325e-017
Spine  3.22255 -0.37201 7.00042
Spine1  6.35345 0.278635 -2.39177
HEad  -11.8163 -3.22787 -3.72107
LeftShoulder1  -0.675737 5.18129 -34.1474
LeftArm  -2.41568 1.85808 -43.0821
LeftForeArm  39.7508 -7.47307 -9.35931
LeftHand  -0.0474379 6.77976 -0.799718
RightShoulder  -0.818507 -5.77961 29.3557
RightArm  12.1117 -6.79618 43.968
RightForeArm  20.0299 8.4309 6.18971
RightHand  0.029425 2.39743 0.240189
LeftUpLeg  18.0271 10.1255 1.06571
LeftLeg  14.8584 0.442057 0.115085
LeftFoot  -17.5337 -0.224814 -6.07777
LeftToes  9.86798e-010 -1.28139e-010 1.4132e-011
